<svg xmlns="http://www.w3.org/2000/svg" width="1200" height="675" viewBox="0 0 1200 675" role="img" aria-labelledby="t d"><title id="t">Школьная поддержка</title><desc id="d">Книги, школьная тетрадь и карточки расписания на нейтральном фоне</desc><rect width="1200" height="675" fill="#f5f7f3"/><circle cx="1090" cy="88" r="192" fill="#e1ebe5"/><circle cx="115" cy="595" r="195" fill="#eee8da"/><g transform="translate(158 145)"><rect x="46" y="56" width="400" height="392" rx="16" fill="#d0dfd9"/><rect x="77" y="87" width="338" height="330" rx="10" fill="#fffdfa"/><path d="M113 158 h255 M113 215 h255 M113 272 h255 M113 329 h255" stroke="#a5c2b8" stroke-width="10" stroke-linecap="round"/><rect x="492" y="178" width="260" height="82" rx="14" fill="#84a9a1"/><rect x="492" y="282" width="260" height="82" rx="14" fill="#cfa983"/><rect x="492" y="386" width="260" height="82" rx="14" fill="#acb7c5"/><path d="M552 220 h145 M552 324 h145 M552 428 h145" stroke="#fffaf1" stroke-width="12" stroke-linecap="round"/><rect x="795" y="36" width="153" height="411" rx="22" fill="#e4d9c7"/><rect x="813" y="61" width="117" height="102" rx="12" fill="#b5d0c3"/><rect x="813" y="181" width="117" height="102" rx="12" fill="#d8b599"/><rect x="813" y="301" width="117" height="102" rx="12" fill="#bdc7d8"/></g></svg>